<svg width="42" height="47" viewBox="0 0 42 47" fill="none" xmlns="http://www.w3.org/2000/svg">
<path d="M30.0158 6.52323H14.0788C13.1524 6.52323 11.7239 6.47096 11.0906 6.52323C10.4314 6.5755 10.681 7.22286 10.0946 7.52255C8.67197 8.24913 7.3944 9.31476 7.10641 10.5205C6.86873 11.5067 7.10294 12.6507 7.10641 13.5184V13.5184V37.5021C7.10641 38.1952 7.61443 39.0105 8.10247 39.5007C8.59051 39.9908 9.4044 40.5 10.0946 40.5H28.0236C29.0941 40.5 30.186 40.3057 31.0118 39.5007C31.8515 38.687 32.0079 37.6614 32.0079 36.5027V34.5041C32.4678 34.2733 32.7257 33.9389 33.0039 33.5048C33.4862 32.7521 34 32.4523 34 31.5062V10.5205C34 9.44718 33.8037 8.35367 33.0039 7.52255C32.1937 6.67923 31.1729 6.52323 30.0158 6.52323ZM28.0236 37.5021H10.0946C10.0946 36.8089 9.60655 36.9929 10.0946 36.5027C10.5826 36.0126 11.3965 35.5034 12.0867 35.5034H30.0158V36.5027C30.0158 37.4959 29.0613 37.4602 29.0197 37.5021C28.9659 37.5543 28.9726 37.5021 28.0236 37.5021ZM16.0709 18.515H25.0355C25.3806 18.515 25.7875 19.2693 26.0315 19.5143C26.2755 19.7594 26.0315 20.1671 26.0315 20.5137C26.0315 20.8603 26.2755 20.2686 26.0315 20.5137C25.7875 20.7587 25.3806 21.513 25.0355 21.513H16.0709C15.7258 21.513 15.3189 20.7587 15.0749 20.5137C14.8309 20.2686 15.0749 20.8603 15.0749 20.5137C15.0749 20.1671 14.8309 19.7594 15.0749 19.5143C15.3189 19.2693 15.7258 18.515 16.0709 18.515Z" fill="#FFEB00"/>
</svg>
