<svg width="166" height="35" viewBox="0 0 166 35" fill="none" xmlns="http://www.w3.org/2000/svg">
<path d="M23.0158 0.523232H7.07882C6.15239 0.523232 4.72389 0.47096 4.09065 0.523232C3.43138 0.575504 3.68098 1.22286 3.09459 1.52255C1.67197 2.24913 0.394405 3.31476 0.106411 4.5205C-0.13127 5.5067 0.102942 6.65073 0.106411 7.51845V7.51845V31.5021C0.106411 32.1952 0.614435 33.0105 1.10247 33.5007C1.59051 33.9908 2.4044 34.5 3.09459 34.5H21.0236C22.0941 34.5 23.186 34.3057 24.0118 33.5007C24.8515 32.687 25.0079 31.6614 25.0079 30.5027V28.5041C25.4678 28.2733 25.7257 27.9389 26.0039 27.5048C26.4862 26.7521 27 26.4523 27 25.5062V4.5205C27 3.44718 26.8037 2.35367 26.0039 1.52255C25.1937 0.679228 24.1729 0.523232 23.0158 0.523232ZM21.0236 31.5021H3.09459C3.09459 30.8089 2.60655 30.9929 3.09459 30.5027C3.58262 30.0126 4.39652 29.5034 5.08671 29.5034H23.0158V30.5027C23.0158 31.4959 22.0613 31.4602 22.0197 31.5021C21.9659 31.5543 21.9726 31.5021 21.0236 31.5021ZM9.07094 12.515H18.0355C18.3806 12.515 18.7875 13.2693 19.0315 13.5143C19.2755 13.7594 19.0315 14.1671 19.0315 14.5137C19.0315 14.8603 19.2755 14.2686 19.0315 14.5137C18.7875 14.7587 18.3806 15.513 18.0355 15.513H9.07094C8.72585 15.513 8.3189 14.7587 8.07488 14.5137C7.83086 14.2686 8.07488 14.8603 8.07488 14.5137C8.07488 14.1671 7.83086 13.7594 8.07488 13.5143C8.3189 13.2693 8.72585 12.515 9.07094 12.515Z" fill="#FFEB00"/>
<path d="M48.5 17.5C48.5 10.9396 52.3365 5.5 59.5 5.5C66.5667 5.5 70.2096 10.6429 70.5 14.5H65.5C65.2096 12.2253 63.3722 9.5 59.5 9.5C55.1116 9.5 52.5 13.1154 52.5 17.5C52.5 21.8846 55.1116 25.5 59.5 25.5C63.3722 25.5 65.2096 22.7747 65.5 20.5H70.5C70.2096 24.3571 66.5667 29.5 59.5 29.5C52.3365 29.5 48.5 24.0604 48.5 17.5Z" fill="#FBFBFB"/>
<path d="M71.5 24.5C71.5 20.6429 74.0796 18.6978 77.5 18.5C80.5332 18.3352 83.5323 19.1154 83.5 17.5C83.4677 16.3132 83.4364 14.5 80.5 14.5C77.5959 14.5 76.7259 16.0824 76.5 17.5H72.5C73.0808 13.1154 76.6924 11.5 80.5 11.5C84.4044 11.5 87.5 12.7747 87.5 19.5V29.5H83.5V28.5C83.5 27.7088 84.2096 27.0934 84.5 26.5C84.6291 26.2033 84.7904 25.6319 84.5 25.5C84.1773 25.3681 83.5645 25.3352 83.5 25.5C82.532 27.9066 80.5332 29.5 77.5 29.5C74.3055 29.5 71.5 27.4341 71.5 24.5ZM83.5 20.5C82.532 21.5879 80.9524 21.2363 78.5 21.5C76.7253 21.6978 75.5 22.9505 75.5 24.5C75.5 25.9505 77.5962 26.7637 79.5 26.5C81.6942 26.2033 83.4677 24.8187 83.5 20.5Z" fill="#FBFBFB"/>
<path d="M95.5 15.5C96.5326 13.0934 97.3374 11.5 101.5 11.5V15.5C96.6921 15.1703 94.5 17.0824 94.5 21.5V29.5H90.5V11.5H94.5V12.5C94.5 13.2582 94.7904 13.9066 94.5 14.5C94.3709 14.7967 94.1128 15.4341 94.5 15.5C94.6936 15.533 95.4677 15.5989 95.5 15.5Z" fill="#FBFBFB"/>
<path d="M103.5 9.5V5.5H107.5V9.5H103.5ZM103.5 11.5H107.5V29.5H103.5V11.5Z" fill="#FBFBFB"/>
<path d="M131.5 29.5H127.5L125.5 23.5H115.5L114.5 29.5H109.5L117.5 6.5H123.5L131.5 29.5ZM119.5 12.5L117.5 20.5H124.5L121.5 12.5C121.21 11.5769 120.532 10.6538 120.5 9.5C120.5 9.3022 120.823 8.5 120.5 8.5C120.177 8.5 120.5 9.3022 120.5 9.5C120.468 10.6538 119.79 11.5769 119.5 12.5Z" fill="#FBFBFB"/>
<path d="M143.5 21.5V6.5H147.5V21.5C147.5 26.7088 144.34 29.5 139.5 29.5C134.595 29.5 132.5 26.7088 132.5 21.5H136.5C136.5 24.6978 137.822 25.5 139.5 25.5C140.823 25.5 143.5 24.6648 143.5 21.5Z" fill="#FBFBFB"/>
<path d="M149.5 24.5C149.5 20.6429 152.08 18.6978 155.5 18.5C158.533 18.3352 161.532 19.1154 161.5 17.5C161.468 16.3132 160.436 14.5 157.5 14.5C154.596 14.5 154.726 16.0824 154.5 17.5H150.5C151.081 13.1154 154.692 11.5 158.5 11.5C162.404 11.5 165.5 12.7747 165.5 19.5V29.5H161.5V28.5C161.5 27.7088 161.21 27.0934 161.5 26.5C161.629 26.2033 161.79 25.6319 161.5 25.5C161.177 25.3681 161.565 25.3352 161.5 25.5C160.532 27.9066 158.533 29.5 155.5 29.5C152.305 29.5 149.5 27.4341 149.5 24.5ZM161.5 20.5C160.532 21.5879 158.952 21.2363 156.5 21.5C154.725 21.6978 153.5 22.9505 153.5 24.5C153.5 25.9505 154.596 26.7637 156.5 26.5C158.694 26.2033 161.468 24.8187 161.5 20.5Z" fill="#FBFBFB"/>
</svg>
